<svg xmlns="http://www.w3.org/2000/svg" xmlns:xlink="http://www.w3.org/1999/xlink" id="Calque_1" x="0px" y="0px" viewBox="0 0 1920 1080" style="enable-background:new 0 0 1920 1080;" xml:space="preserve"><style type="text/css">	.st0{fill:#FF3D08;}	.st1{fill:#FFFFFF;}</style><g>	<path class="st0" d="M696,202.1h387.3c7.8,0,14.4,1,19.7,3c5.4,2,10.5,5,15.5,9.1s10.4,9.1,16.4,15.2l64.7,64.7  c9.2,8.7,16,16.6,20.4,23.5c4.4,7,6.6,16.2,6.6,27.9v6.9h-69.5v-58.7c0-6.3-2-11.5-6.1-15.7s-9.3-6.3-15.7-6.3H765.4V458  c0,6.3,2.1,11.5,6.2,15.7c4.1,4.2,9.4,6.3,15.8,6.3H1157v-53c0-6.1-2-11.3-6.1-15.5s-9.3-6.3-15.7-6.3H834.7  c-8.1,0-14.3,3.2-18.6,9.6c-0.6,0.6-1.2,0.9-1.8,0.9h-1.6V398c0-5.7,1.1-10.4,3.3-14.1s5.6-7.8,10.2-12.3l1.4-1.4  c5.5-5.7,11.2-11.2,17-16.5c6.3-6.1,12.5-10.6,18.6-13.5s13.9-4.4,23.4-4.4h196.7c7.8,0,14.4,1,19.7,3c5.4,2,10.5,5,15.5,8.9  c5,4,10.4,9,16.4,15.1l64.7,64.7c9.2,8.7,16,16.6,20.4,23.6s6.6,16.4,6.6,28v8.3c0,5.7-1.1,10.4-3.3,14.1  c-2.2,3.7-5.6,7.8-10.2,12.3l-1.6,1.6c-5.5,5.5-11.1,10.9-16.7,16.3c-6.3,6-12.5,10.4-18.6,13.4s-13.9,4.5-23.4,4.5H839.3  c-7.6,0-14.2-1-19.6-3c-5.4-2-10.6-5-15.5-8.9c-4.9-4-10.3-9-16.3-15.1l-65.8-65.8c-7.2-6.7-13.1-13.5-17.9-20.4  c-4.7-6.9-7.5-15.4-8.3-25.7L696,202.1L696,202.1z"></path>	<path class="st0" d="M574.9,275.9c0-6.3-2-11.9-6.1-16.9s-9.3-8.1-15.7-9.3l-54.4-10.5v278.2l-106.3-20.5  c-11.6-2.2-20.9-6.3-27.9-12c-7-5.8-14.8-14.1-23.5-25l-64.7-77.2c-8.3-9.6-14.7-18-19.3-25.4c-4.6-7.4-7.3-15.7-8-24.9V213  c0-6.3-2.1-11.9-6.2-16.9c-4.1-5-9.4-8.1-15.8-9.4l-122-23.5v278.2L35.4,428V80.3L175,107.2c11.6,2.2,21,6.3,28,12.2  c7,5.9,14.9,14.2,23.6,25.1l64.7,77.2c9,10.5,15.8,19.7,20.3,27.8s6.8,17.6,6.8,28.6V391c0,6.3,2.1,11.9,6.2,16.9s9.4,8.1,15.8,9.4  l88.6,17.1V156.2l72,13.8c11.6,2.2,21,6.3,28,12.2s14.9,14.2,23.6,25.1l64.7,77.2c6.1,7.2,11.2,13.6,15.3,19.3  c4.1,5.7,7,11.4,9,17.2c1.9,5.8,2.9,12.5,2.9,20.2v204.3l-69.6-13.4V275.9z"></path>	<path class="st0" d="M1277.9,544.5v-76.4c0-12.2,2.4-22.4,7.3-30.4c4.9-8.1,11.5-16.8,19.7-26.2l64.7-77.2  c6.1-7.3,11.6-13.4,16.5-18.4s10-9,15.4-12s11.9-5.3,19.7-6.8l124.3-24c41.3-7.8,82.7-15.7,124.1-23.7c8.1-1.6,14.3-6,18.6-13.4  c0.6-0.7,1.2-1.2,1.8-1.3l1.6-0.3v17.9c0,5.7-1.1,10.6-3.3,14.8c-2.2,4.2-5.6,8.9-10.2,14.2l-1.6,1.9c-5.5,6.6-11.1,13.1-16.7,19.5  c-6.3,7.3-12.5,13.1-18.6,17.2c-6.1,4.2-13.9,7.2-23.4,9c-41.4,8-82.9,15.9-124.3,23.7l-124.1,23.9c-6.4,1.2-11.7,4.4-15.8,9.5  c-4.1,5.1-6.2,10.7-6.2,16.8v58.7l369.8-71.3c6.4-1.2,11.7-4.4,15.8-9.4c4.1-5,6.2-10.6,6.2-16.9v-58.7l69.5-13.4v6.9  c0,11.6-2.3,21.4-6.8,29.2c-4.5,7.8-11.4,17.1-20.5,27.7l-64.7,77.2c-6,7.3-11.4,13.4-16.3,18.3s-10.1,8.9-15.5,11.9  s-12,5.3-19.6,6.8L1277.9,544.5z M1347.4,333.8l-69.5,13.4v-6.9c0-7.6,1-14.4,3-20.2c2-5.8,5-11.5,8.9-17.2c4-5.7,9-12.1,15.1-19.2  l64.7-77.4c8.9-10.7,16.8-19,23.7-24.9c7-5.8,16.3-9.9,27.9-12.1l387.5-74.7v69.5l-439.3,84.7c-6.4,1.2-11.7,4.4-15.8,9.4  c-4.1,5-6.2,10.6-6.2,16.9L1347.4,333.8L1347.4,333.8z"></path></g><polygon class="st0" points="1858.7,502.7 1852.3,502.7 1852.3,519.3 1847.6,519.3 1847.6,502.7 1841.2,502.7 1841.2,498.9  1858.7,498.9 "></polygon><polygon class="st0" points="1884,498.9 1884,519.3 1879.3,519.3 1879.3,503.1 1874,519.3 1870.2,519.3 1864.9,503.1 1864.9,519.3  1860.2,519.3 1860.2,498.9 1867.5,498.9 1872.1,512.8 1876.7,498.9 "></polygon><polygon class="st1" points="160.9,681.2 160.9,758.8 147.9,758.8 147.9,692.8 109.6,738 93.5,738 55.2,694.1 55.2,758.8  42.2,758.8 42.2,681.2 60.6,681.2 101.5,728.3 141.9,681.2 "></polygon><g>	<path class="st1" d="M280.1,719.9c0-20.5-11.9-28.2-46.1-28.2c-34.4,0-46.3,7.8-46.3,28.2c0,20.5,11.9,28.3,46.3,28.3  C268.2,748.2,280.1,740.3,280.1,719.9 M293.1,719.9c0,26.2-13.9,40.4-59.2,40.4c-45.4,0-59.3-14.2-59.3-40.4  c0-26.3,13.9-40.3,59.3-40.3C279.2,679.6,293.1,693.6,293.1,719.9"></path>	<path class="st1" d="M376.4,718.5c13.1,0,17.6-3.3,17.6-13c0-9.2-4.5-12.3-17.6-12.3h-56.6v25.3H376.4z M409.8,758.9h-13.7  c-1.1-4-1.4-9.1-1.4-15.9c0-9.4-4.7-12.3-18.3-12.3h-56.6v28.2h-13v-77.6h66.9c24.1,0.1,33.3,6.3,33.3,24.3  c0,9.7-3.6,15.2-12.2,18.1c9.5,2.4,13,8,13,19.3C407.7,749.7,408.3,754.8,409.8,758.9"></path>	<path class="st1" d="M523.2,719.9c0-20.5-11.9-28.2-46.1-28.2c-34.4,0-46.3,7.8-46.3,28.2c0,20.5,11.9,28.3,46.3,28.3  C511.3,748.2,523.2,740.3,523.2,719.9 M536.2,719.9c0,26.2-13.9,40.4-59.2,40.4c-45.4,0-59.3-14.2-59.3-40.4  c0-26.3,13.9-40.3,59.3-40.3C522.3,679.6,536.2,693.6,536.2,719.9"></path>	<path class="st1" d="M646.9,733h13c0,17.5-15.6,27.3-52.2,27.3c-46.6,0-62.1-14.3-62.1-40.5c0-26.3,15.4-40.5,62.1-40.5  c36.8,0,52.2,9.7,52.2,27.2h-13c0-11.4-15-15.2-39.3-15.2c-36.2,0-49,7.6-49,28.4c0,20.5,12.5,28.4,49,28.4  C632.1,748.3,646.9,744.3,646.9,733"></path>	<path class="st1" d="M769.8,733h13c0,17.5-15.6,27.3-52.2,27.3c-46.6,0-62.1-14.3-62.1-40.5c0-26.3,15.4-40.5,62.1-40.5  c36.8,0,52.2,9.7,52.2,27.2h-13c0-11.4-15-15.2-39.3-15.2c-36.2,0-49.1,7.6-49.1,28.4c0,20.5,12.5,28.4,49.1,28.4  C755,748.3,769.8,744.3,769.8,733"></path>	<path class="st1" d="M896.8,719.9c0-20.5-11.9-28.2-46.1-28.2c-34.4,0-46.3,7.8-46.3,28.2c0,20.5,11.9,28.3,46.3,28.3  C884.9,748.2,896.8,740.3,896.8,719.9 M909.8,719.9c0,26.2-13.9,40.4-59.2,40.4c-45.4,0-59.3-14.2-59.3-40.4  c0-26.3,13.9-40.3,59.3-40.3C895.9,679.6,909.8,693.6,909.8,719.9"></path>	<path class="st1" d="M107.1,837.3H153v41.6h-12.7v-11.3c-5.1,6.7-16.5,12.7-39.9,12.7c-45.9,0-60.9-15.6-60.9-40.1  c0-24.6,15-40.7,60.9-40.7c36.1,0,52.7,9.8,52.7,27.2h-13c0-11.2-15.6-15.1-39.7-15.1c-31.8,0-47.8,8.2-47.8,28.7s16,28,47.8,28  c18.5,0,39.4-2.3,39.9-14.8v-4.2h-33.1v-12H107.1z"></path></g><path class="st1" d="M249.7,849.4L223.4,810l-26.3,39.4H249.7z M257.7,861.5h-68.5L177.5,879h-15.2l53-77.6h16.3l52.9,77.6h-15.1 L257.7,861.5z"></path><polygon class="st1" points="412.8,801.4 412.8,879 399.8,879 399.8,813 361.5,858.2 345.4,858.2 307.1,814.2 307.1,879 294.1,879  294.1,801.4 312.5,801.4 353.4,848.4 393.8,801.4 "></polygon><rect x="429.3" y="801.4" class="st1" width="13" height="77.6"></rect><polygon class="st1" points="566.4,801.4 566.4,879 547.6,879 471.9,814.1 471.9,879 458.9,879 458.9,801.4 476.9,801.4 553.4,867  553.4,801.4 "></polygon><g>	<path class="st1" d="M647.8,837.3h45.9v41.6H681v-11.3c-5.1,6.7-16.5,12.7-39.9,12.7c-45.9,0-60.9-15.6-60.9-40.1  c0-24.6,15-40.7,60.9-40.7c36.1,0,52.7,9.8,52.7,27.2h-13c0-11.2-15.6-15.1-39.7-15.1c-31.8,0-47.8,8.2-47.8,28.7s16,28,47.8,28  c18.5,0,39.4-2.3,39.9-14.8v-4.2h-33.1v-12H647.8z"></path></g><polygon class="st1" points="42.2,921.5 136.1,921.5 136.1,933.6 55.3,933.6 55.3,952.6 132.3,952.6 132.3,964.6 55.3,964.6  55.3,987.1 137.1,987.1 137.1,999.2 42.2,999.2 "></polygon><polygon class="st1" points="239.1,999.2 201.2,967.3 163.2,999.2 144.2,999.2 191.7,959.4 146.6,921.5 165.2,921.5 201,951.6  236.9,921.5 255.8,921.5 210.5,959.5 257.7,999.2 "></polygon><g>	<path class="st1" d="M354.9,948.4c0-10.5-5.3-14.8-19.6-14.8h-54.1v29.7h54.1C349.6,963.2,354.9,959,354.9,948.4 M367.9,948.4  c0,19.3-10.4,26.9-35.6,26.9h-51.2v23.9h-13v-77.6h64.4C357.6,921.6,367.9,929.3,367.9,948.4"></path>	<path class="st1" d="M482.4,960.2c0-20.5-11.9-28.2-46.1-28.2c-34.4,0-46.3,7.8-46.3,28.2c0,20.5,11.9,28.3,46.3,28.3  C470.5,988.5,482.4,980.6,482.4,960.2 M495.4,960.2c0,26.2-13.9,40.4-59.2,40.4c-45.4,0-59.3-14.2-59.3-40.4  c0-26.3,13.9-40.3,59.3-40.3C481.5,919.9,495.4,933.9,495.4,960.2"></path></g><g>	<path class="st1" d="M1365.7,742.2c17.6-3.8,31.4-7,41.3-9.8c10-2.8,18.3-6.2,24.9-10.3s10-9,10-14.8c0-4.3-1.3-7.6-3.8-10.1  c-2.5-2.4-6.6-4.2-12.3-5.2c-5.7-1-13.5-1.5-23.4-1.5c-10.5,0-18.5,0.7-23.9,2s-9,3.1-10.8,5.5c-1.8,2.3-2.7,5.3-2.7,8.8l-13-1.5  c0-7,1.7-12.4,5.2-16.3c3.5-3.9,8.9-6.6,16.1-8.1s16.9-2.3,29.1-2.3c14.1,0,25,1.2,32.6,3.6c7.6,2.4,12.8,5.6,15.6,9.8  c2.8,4.1,4.2,9.3,4.2,15.4c0,7-3.4,13-10.1,18.1c-6.7,5-15.3,9.2-25.9,12.6c-10.5,3.3-23.6,6.4-39.1,9.3c1.5,0,3.2-0.1,5.2-0.2  s5.2-0.3,9.5-0.5c6.5-0.4,11.1-0.6,13.7-0.6l46.5-0.1v12h-101.9v-12.7C1357.8,743.8,1362.1,742.9,1365.7,742.2z"></path>	<path class="st1" d="M1486.3,754c-7.7-2.9-13.1-7.3-16.3-13.1c-3.2-5.8-4.8-13.2-4.8-22.4s1.6-16.6,4.8-22.4  c3.2-5.8,8.6-10.2,16.3-13.1c7.7-2.9,18.5-4.4,32.4-4.4s24.7,1.5,32.4,4.4c7.7,2.9,13.1,7.3,16.3,13.1c3.2,5.8,4.8,13.3,4.8,22.4  s-1.6,16.6-4.8,22.4c-3.2,5.8-8.6,10.1-16.3,13.1c-7.7,2.9-18.5,4.4-32.4,4.4S1494,756.9,1486.3,754z M1544.4,743.3  c5.8-2.1,9.7-5,11.7-8.9s3.1-9.2,3.1-15.9s-1-12-3.1-15.9c-2-3.9-6-6.9-11.8-9s-14.4-3.1-25.7-3.1c-11.4,0-19.9,1-25.7,3.1  c-5.8,2.1-9.7,5.1-11.8,9c-2.1,3.9-3.1,9.2-3.1,15.8c0,6.7,1,11.9,3.1,15.8c2.1,3.9,6,6.9,11.8,8.9c5.8,2.1,14.3,3.1,25.7,3.1  S1538.6,745.4,1544.4,743.3z"></path>	<path class="st1" d="M1596.4,742.2c17.6-3.8,31.4-7,41.3-9.8c10-2.8,18.3-6.2,24.9-10.3s10-9,10-14.8c0-4.3-1.3-7.6-3.8-10.1  c-2.5-2.4-6.6-4.2-12.3-5.2c-5.7-1-13.5-1.5-23.4-1.5c-10.5,0-18.5,0.7-23.9,2s-9,3.1-10.8,5.5c-1.8,2.3-2.7,5.3-2.7,8.8l-13-1.5  c0-7,1.7-12.4,5.2-16.3c3.5-3.9,8.9-6.6,16.1-8.1s16.9-2.3,29.1-2.3c14.1,0,25,1.2,32.6,3.6s12.8,5.6,15.6,9.8  c2.8,4.1,4.2,9.3,4.2,15.4c0,7-3.4,13-10.1,18.1c-6.7,5-15.3,9.2-25.9,12.6c-10.5,3.3-23.6,6.4-39.1,9.3c1.5,0,3.2-0.1,5.2-0.2  c2-0.1,5.2-0.3,9.5-0.5c6.5-0.4,11.1-0.6,13.7-0.6l46.5-0.1v12h-101.9v-12.7C1588.5,743.8,1592.8,742.9,1596.4,742.2z"></path>	<path class="st1" d="M1719.4,755.6c-7.7-1.7-13.1-4.1-16.2-7.3c-3.1-3.1-5-7.1-5.6-11.9h13.2c0.8,2.4,2.6,4.4,5.3,5.8  c2.7,1.4,6.9,2.4,12.5,3s13.3,0.9,23.2,0.9c10,0,17.8-0.5,23.4-1.4s9.5-2.5,11.8-4.6s3.5-5.1,3.5-8.8c0-4.2-1.2-7.5-3.7-9.8  c-2.4-2.4-6.5-4-12.2-5s-13.8-1.4-24.2-1.4c-7.7,0-14.2,0.3-19.2,0.8s-9,1.5-11.9,2.7s-4.7,3-5.5,5.1H1700l11.7-43.7h88.9v12h-78.5  l-4.6,17.2c3.1-2,7.2-3.5,12.4-4.5c5.2-1.1,12-1.6,20.4-1.6c13.9,0,24.8,1.1,32.5,3.3s13.1,5.3,16.1,9.4s4.5,9.3,4.5,15.5  c0,5.8-1.4,10.6-4.3,14.5c-2.8,3.9-8,6.9-15.6,9c-7.5,2.2-18.1,3.2-31.7,3.2C1737.9,758.2,1727.1,757.4,1719.4,755.6z"></path></g></svg>